<svg width="260" height="439" viewBox="0 0 260 439" fill="none" xmlns="http://www.w3.org/2000/svg">
  <path
    d="M6.97656 421.859H8.15625L7.625 420.156H3.98438L3.45312 421.859H4.70312V424H0.210938V421.859H1.09375L4.32031 412.156H7.45312L10.6094 421.859H11.4688V424H6.97656V421.859ZM4.60156 418.156H6.99219L5.78906 414.305L4.60156 418.156ZM14.3766 415.906H18.6031V418.047H17.6187L18.9391 421.523L20.2125 418.047H19.3375V415.906H23.5641V418.047H22.4859L20.0719 424.031H17.6891L15.275 418.047H14.3766V415.906ZM29.0109 420.461L29.0344 420.703C29.0917 420.938 29.188 421.143 29.3234 421.32C29.4641 421.497 29.6281 421.646 29.8156 421.766C30.0031 421.885 30.2115 421.977 30.4406 422.039C30.6698 422.096 30.9016 422.125 31.1359 422.125C31.3703 422.125 31.5917 422.112 31.8 422.086C32.0135 422.055 32.2193 422.016 32.4172 421.969C32.6151 421.917 32.8078 421.859 32.9953 421.797C33.1828 421.729 33.3729 421.659 33.5656 421.586L34.425 423.188C34.1281 423.37 33.8547 423.526 33.6047 423.656C33.3599 423.781 33.1125 423.885 32.8625 423.969C32.6125 424.052 32.3469 424.112 32.0656 424.148C31.7844 424.19 31.4562 424.211 31.0812 424.211C30.3781 424.211 29.7531 424.096 29.2062 423.867C28.6594 423.633 28.1984 423.318 27.8234 422.922C27.4536 422.526 27.1698 422.062 26.9719 421.531C26.7792 421 26.6828 420.438 26.6828 419.844C26.6828 419.25 26.7844 418.693 26.9875 418.172C27.1958 417.651 27.4875 417.198 27.8625 416.812C28.2375 416.422 28.6854 416.115 29.2062 415.891C29.7271 415.667 30.3052 415.555 30.9406 415.555C31.576 415.555 32.1385 415.661 32.6281 415.875C33.1229 416.083 33.5396 416.375 33.8781 416.75C34.2167 417.12 34.4771 417.557 34.6594 418.062C34.8417 418.562 34.9406 419.102 34.9562 419.68C34.9719 419.81 34.9797 419.94 34.9797 420.07C34.9849 420.195 34.9823 420.326 34.9719 420.461H29.0109ZM30.8781 417.508C30.5865 417.508 30.3365 417.544 30.1281 417.617C29.925 417.685 29.7531 417.781 29.6125 417.906C29.4719 418.026 29.3599 418.164 29.2766 418.32C29.1932 418.477 29.1281 418.641 29.0812 418.812H32.4641C32.4276 418.635 32.3755 418.469 32.3078 418.312C32.2401 418.156 32.1464 418.018 32.0266 417.898C31.9068 417.779 31.7531 417.685 31.5656 417.617C31.3833 417.544 31.1542 417.508 30.8781 417.508ZM45.9188 418.852H43.7234V418.016C43.5099 418.016 43.3146 418.031 43.1375 418.062C42.9604 418.089 42.8042 418.135 42.6688 418.203C42.5385 418.271 42.4266 418.365 42.3328 418.484C42.2443 418.604 42.1818 418.753 42.1453 418.93V421.859H43.7938V424H38.5125V421.859H39.7234V418.047H38.5281V415.906H42.1297V416.477C42.3589 416.294 42.6167 416.154 42.9031 416.055C43.1896 415.956 43.5021 415.906 43.8406 415.906C44.1844 415.906 44.5385 415.909 44.9031 415.914C45.2677 415.919 45.6063 415.922 45.9188 415.922V418.852ZM54.6234 423.562C54.4411 423.677 54.2745 423.776 54.1234 423.859C53.9724 423.938 53.8214 424 53.6703 424.047C53.5193 424.099 53.363 424.135 53.2016 424.156C53.0401 424.182 52.863 424.195 52.6703 424.195C52.1859 424.195 51.751 424.13 51.3656 424C50.9854 423.865 50.6625 423.682 50.3969 423.453C50.1365 423.219 49.9359 422.945 49.7953 422.633C49.6547 422.315 49.5844 421.971 49.5844 421.602C49.5844 421.227 49.6547 420.88 49.7953 420.562C49.9411 420.245 50.1495 419.974 50.4203 419.75C50.6911 419.521 51.0219 419.344 51.4125 419.219C51.8083 419.089 52.2589 419.023 52.7641 419.023C53.1339 419.023 53.4698 419.044 53.7719 419.086C54.0792 419.122 54.363 419.169 54.6234 419.227V418.977C54.6234 418.773 54.5844 418.599 54.5062 418.453C54.4281 418.302 54.3187 418.18 54.1781 418.086C54.0375 417.987 53.8682 417.917 53.6703 417.875C53.4724 417.828 53.2562 417.805 53.0219 417.805C52.5323 417.805 52.1 417.854 51.725 417.953C51.3552 418.047 50.9984 418.185 50.6547 418.367L49.9047 416.852C50.4359 416.487 50.9906 416.208 51.5687 416.016C52.1521 415.823 52.7693 415.727 53.4203 415.727C53.9255 415.727 54.3917 415.784 54.8187 415.898C55.251 416.008 55.6208 416.19 55.9281 416.445C56.2354 416.695 56.475 417.023 56.6469 417.43C56.824 417.836 56.9125 418.331 56.9125 418.914V421.859H57.9984V424H54.6234V423.562ZM52.8422 422.352C53.212 422.352 53.5479 422.292 53.85 422.172C54.1521 422.052 54.4099 421.906 54.6234 421.734V420.703H52.7484C52.6286 420.703 52.5115 420.721 52.3969 420.758C52.2823 420.794 52.1781 420.846 52.0844 420.914C51.9958 420.982 51.9229 421.065 51.8656 421.164C51.8135 421.263 51.7875 421.378 51.7875 421.508C51.7875 421.747 51.8734 421.948 52.0453 422.109C52.2224 422.271 52.488 422.352 52.8422 422.352ZM68.0547 423.578C67.763 423.745 67.4714 423.865 67.1797 423.938C66.888 424.01 66.5911 424.047 66.2891 424.047C65.6641 424.047 65.0885 423.94 64.5625 423.727C64.0365 423.513 63.5807 423.219 63.1953 422.844C62.8151 422.464 62.5182 422.016 62.3047 421.5C62.0911 420.984 61.9844 420.424 61.9844 419.82C61.9844 419.253 62.0859 418.719 62.2891 418.219C62.4974 417.714 62.7865 417.273 63.1562 416.898C63.526 416.518 63.9688 416.219 64.4844 416C65 415.781 65.5599 415.669 66.1641 415.664C66.5339 415.669 66.8724 415.708 67.1797 415.781C67.4922 415.854 67.7839 415.953 68.0547 416.078V415.906H70.4219V423.664C70.4219 424.346 70.3047 424.935 70.0703 425.43C69.8359 425.93 69.5208 426.341 69.125 426.664C68.7344 426.992 68.2786 427.234 67.7578 427.391C67.237 427.552 66.6901 427.633 66.1172 427.633C65.4089 427.633 64.7526 427.536 64.1484 427.344C63.5495 427.151 63.0156 426.891 62.5469 426.562L63.5234 424.828C63.8828 425.057 64.2734 425.237 64.6953 425.367C65.1172 425.503 65.5859 425.57 66.1016 425.57C66.3828 425.57 66.6406 425.539 66.875 425.477C67.1146 425.414 67.3203 425.307 67.4922 425.156C67.6693 425.01 67.8073 424.812 67.9062 424.562C68.0052 424.312 68.0547 423.997 68.0547 423.617V423.578ZM66.3672 421.883C66.7318 421.883 67.0599 421.792 67.3516 421.609C67.6484 421.422 67.8828 421.177 68.0547 420.875L68.0703 418.906C67.8932 418.578 67.651 418.318 67.3438 418.125C67.0365 417.932 66.7031 417.833 66.3438 417.828C66.0885 417.833 65.8385 417.885 65.5938 417.984C65.349 418.078 65.1354 418.214 64.9531 418.391C64.776 418.568 64.6354 418.779 64.5312 419.023C64.4271 419.263 64.375 419.531 64.375 419.828C64.375 420.141 64.4271 420.424 64.5312 420.68C64.6354 420.935 64.776 421.151 64.9531 421.328C65.1302 421.505 65.3385 421.643 65.5781 421.742C65.8229 421.836 66.0859 421.883 66.3672 421.883ZM76.6734 420.461L76.6969 420.703C76.7542 420.938 76.8505 421.143 76.9859 421.32C77.1266 421.497 77.2906 421.646 77.4781 421.766C77.6656 421.885 77.874 421.977 78.1031 422.039C78.3323 422.096 78.5641 422.125 78.7984 422.125C79.0328 422.125 79.2542 422.112 79.4625 422.086C79.676 422.055 79.8818 422.016 80.0797 421.969C80.2776 421.917 80.4703 421.859 80.6578 421.797C80.8453 421.729 81.0354 421.659 81.2281 421.586L82.0875 423.188C81.7906 423.37 81.5172 423.526 81.2672 423.656C81.0224 423.781 80.775 423.885 80.525 423.969C80.275 424.052 80.0094 424.112 79.7281 424.148C79.4469 424.19 79.1188 424.211 78.7438 424.211C78.0406 424.211 77.4156 424.096 76.8688 423.867C76.3219 423.633 75.8609 423.318 75.4859 422.922C75.1161 422.526 74.8323 422.062 74.6344 421.531C74.4417 421 74.3453 420.438 74.3453 419.844C74.3453 419.25 74.4469 418.693 74.65 418.172C74.8583 417.651 75.15 417.198 75.525 416.812C75.9 416.422 76.3479 416.115 76.8688 415.891C77.3896 415.667 77.9677 415.555 78.6031 415.555C79.2385 415.555 79.801 415.661 80.2906 415.875C80.7854 416.083 81.2021 416.375 81.5406 416.75C81.8792 417.12 82.1396 417.557 82.3219 418.062C82.5042 418.562 82.6031 419.102 82.6188 419.68C82.6344 419.81 82.6422 419.94 82.6422 420.07C82.6474 420.195 82.6448 420.326 82.6344 420.461H76.6734ZM78.5406 417.508C78.249 417.508 77.999 417.544 77.7906 417.617C77.5875 417.685 77.4156 417.781 77.275 417.906C77.1344 418.026 77.0224 418.164 76.9391 418.32C76.8557 418.477 76.7906 418.641 76.7438 418.812H80.1266C80.0901 418.635 80.038 418.469 79.9703 418.312C79.9026 418.156 79.8089 418.018 79.6891 417.898C79.5693 417.779 79.4156 417.685 79.2281 417.617C79.0458 417.544 78.8167 417.508 78.5406 417.508ZM99.1844 418.852H96.9891V418.016C96.7755 418.016 96.5802 418.031 96.4031 418.062C96.226 418.089 96.0698 418.135 95.9344 418.203C95.8042 418.271 95.6922 418.365 95.5984 418.484C95.5099 418.604 95.4474 418.753 95.4109 418.93V421.859H97.0594V424H91.7781V421.859H92.9891V418.047H91.7937V415.906H95.3953V416.477C95.6245 416.294 95.8823 416.154 96.1687 416.055C96.4552 415.956 96.7677 415.906 97.1062 415.906C97.45 415.906 97.8042 415.909 98.1687 415.914C98.5333 415.919 98.8719 415.922 99.1844 415.922V418.852ZM105.014 420.461L105.037 420.703C105.095 420.938 105.191 421.143 105.327 421.32C105.467 421.497 105.631 421.646 105.819 421.766C106.006 421.885 106.215 421.977 106.444 422.039C106.673 422.096 106.905 422.125 107.139 422.125C107.373 422.125 107.595 422.112 107.803 422.086C108.017 422.055 108.222 422.016 108.42 421.969C108.618 421.917 108.811 421.859 108.998 421.797C109.186 421.729 109.376 421.659 109.569 421.586L110.428 423.188C110.131 423.37 109.858 423.526 109.608 423.656C109.363 423.781 109.116 423.885 108.866 423.969C108.616 424.052 108.35 424.112 108.069 424.148C107.787 424.19 107.459 424.211 107.084 424.211C106.381 424.211 105.756 424.096 105.209 423.867C104.662 423.633 104.202 423.318 103.827 422.922C103.457 422.526 103.173 422.062 102.975 421.531C102.782 421 102.686 420.438 102.686 419.844C102.686 419.25 102.787 418.693 102.991 418.172C103.199 417.651 103.491 417.198 103.866 416.812C104.241 416.422 104.689 416.115 105.209 415.891C105.73 415.667 106.308 415.555 106.944 415.555C107.579 415.555 108.142 415.661 108.631 415.875C109.126 416.083 109.543 416.375 109.881 416.75C110.22 417.12 110.48 417.557 110.662 418.062C110.845 418.562 110.944 419.102 110.959 419.68C110.975 419.81 110.983 419.94 110.983 420.07C110.988 420.195 110.985 420.326 110.975 420.461H105.014ZM106.881 417.508C106.59 417.508 106.34 417.544 106.131 417.617C105.928 417.685 105.756 417.781 105.616 417.906C105.475 418.026 105.363 418.164 105.28 418.32C105.196 418.477 105.131 418.641 105.084 418.812H108.467C108.431 418.635 108.379 418.469 108.311 418.312C108.243 418.156 108.149 418.018 108.03 417.898C107.91 417.779 107.756 417.685 107.569 417.617C107.386 417.544 107.157 417.508 106.881 417.508ZM121.234 419.344C121.234 418.891 121.115 418.536 120.875 418.281C120.635 418.021 120.318 417.891 119.922 417.891C119.651 417.891 119.378 417.951 119.102 418.07C118.826 418.19 118.557 418.414 118.297 418.742V421.859H119.609V424H114.578V421.859H115.766V418.047H114.594V415.906H118.281V416.617C118.62 416.352 118.997 416.143 119.414 415.992C119.836 415.836 120.279 415.758 120.742 415.758C121.716 415.758 122.466 416.031 122.992 416.578C123.518 417.12 123.781 417.914 123.781 418.961V421.859H124.93V424H121.234V419.344ZM131.439 415.906H133.056V417.953H131.423L131.408 421.375C131.408 421.573 131.423 421.734 131.455 421.859C131.486 421.979 131.53 422.076 131.588 422.148C131.65 422.221 131.723 422.271 131.806 422.297C131.89 422.323 131.986 422.336 132.095 422.336C132.293 422.336 132.468 422.318 132.619 422.281C132.77 422.24 132.921 422.193 133.072 422.141L133.408 423.648C133.142 423.815 132.845 423.948 132.517 424.047C132.194 424.146 131.809 424.195 131.361 424.195C131.043 424.195 130.739 424.141 130.447 424.031C130.16 423.922 129.908 423.758 129.689 423.539C129.47 423.315 129.296 423.036 129.166 422.703C129.035 422.37 128.973 421.982 128.978 421.539L129.002 417.953H127.838V415.906H129.009L129.025 413.969L131.455 412.812L131.439 415.906Z"
    fill="#9FA3A7" />
  <path
    d="M157.223 431.305V425.645C156.59 425.457 155.998 425.211 155.447 424.906C154.908 424.602 154.428 424.227 154.006 423.781H150.912V418.49H156.924C156.924 418.912 156.994 419.299 157.135 419.65C157.275 419.99 157.48 420.289 157.75 420.547C158.02 420.793 158.348 420.986 158.734 421.127C159.133 421.268 159.59 421.338 160.105 421.338C160.715 421.338 161.178 421.215 161.494 420.969C161.811 420.723 161.969 420.4 161.969 420.002C161.969 419.814 161.91 419.645 161.793 419.492C161.676 419.328 161.523 419.182 161.336 419.053C161.148 418.924 160.932 418.812 160.686 418.719C160.451 418.613 160.217 418.525 159.982 418.455L156.713 417.453C156.057 417.254 155.436 417.002 154.85 416.697C154.275 416.381 153.771 415.994 153.338 415.537C152.904 415.08 152.559 414.541 152.301 413.92C152.055 413.287 151.932 412.555 151.932 411.723C151.932 410.902 152.061 410.17 152.318 409.525C152.576 408.869 152.939 408.301 153.408 407.82C153.877 407.34 154.434 406.947 155.078 406.643C155.734 406.326 156.449 406.092 157.223 405.939V400.244H163.059V406.238C163.551 406.402 164.002 406.59 164.412 406.801C164.822 407.012 165.186 407.24 165.502 407.486H168.666V412.777H162.654C162.643 412.344 162.572 411.975 162.443 411.67C162.314 411.354 162.127 411.084 161.881 410.861C161.635 410.639 161.336 410.463 160.984 410.334C160.633 410.205 160.229 410.141 159.771 410.141C159.197 410.141 158.752 410.246 158.436 410.457C158.131 410.668 157.979 410.961 157.979 411.336C157.979 411.547 158.043 411.734 158.172 411.898C158.301 412.051 158.477 412.197 158.699 412.338C158.922 412.467 159.186 412.59 159.49 412.707C159.795 412.812 160.117 412.918 160.457 413.023L163.586 414.025C165.156 414.518 166.316 415.209 167.066 416.1C167.816 416.979 168.191 418.127 168.191 419.545C168.191 420.295 168.068 420.992 167.822 421.637C167.588 422.281 167.248 422.867 166.803 423.395C166.357 423.922 165.818 424.379 165.186 424.766C164.553 425.141 163.844 425.439 163.059 425.662V431.305H157.223ZM176.312 425.451C176.312 425.018 176.389 424.613 176.541 424.238C176.705 423.852 176.928 423.518 177.209 423.236C177.49 422.943 177.818 422.715 178.193 422.551C178.58 422.387 178.996 422.305 179.441 422.305C179.863 422.305 180.262 422.387 180.637 422.551C181.012 422.715 181.34 422.943 181.621 423.236C181.902 423.518 182.125 423.852 182.289 424.238C182.453 424.613 182.535 425.018 182.535 425.451C182.535 425.885 182.453 426.295 182.289 426.682C182.125 427.057 181.902 427.385 181.621 427.666C181.34 427.947 181.012 428.17 180.637 428.334C180.262 428.498 179.863 428.58 179.441 428.58C178.996 428.58 178.58 428.498 178.193 428.334C177.818 428.17 177.49 427.947 177.209 427.666C176.928 427.385 176.705 427.057 176.541 426.682C176.389 426.295 176.312 425.885 176.312 425.451ZM176.717 421.127C176.717 420.307 176.729 419.586 176.752 418.965C176.775 418.344 176.822 417.793 176.893 417.312C176.975 416.82 177.086 416.387 177.227 416.012C177.379 415.625 177.572 415.268 177.807 414.939C178.053 414.611 178.352 414.295 178.703 413.99C179.055 413.674 179.482 413.34 179.986 412.988C180.525 412.543 180.971 412.139 181.322 411.775C181.674 411.4 181.949 411.031 182.148 410.668C182.348 410.305 182.488 409.93 182.57 409.543C182.652 409.156 182.693 408.723 182.693 408.242C182.693 407.551 182.518 406.988 182.166 406.555C181.826 406.121 181.363 405.904 180.777 405.904C180.414 405.904 180.074 405.945 179.758 406.027C179.453 406.109 179.184 406.262 178.949 406.484C178.715 406.707 178.527 407.012 178.387 407.398C178.258 407.785 178.193 408.283 178.193 408.893L172.604 408.348C172.627 407.059 172.85 405.939 173.271 404.99C173.705 404.029 174.291 403.232 175.029 402.6C175.779 401.967 176.658 401.498 177.666 401.193C178.686 400.877 179.793 400.719 180.988 400.719C182.102 400.719 183.145 400.883 184.117 401.211C185.09 401.539 185.934 402.025 186.648 402.67C187.375 403.314 187.943 404.105 188.354 405.043C188.775 405.98 188.986 407.059 188.986 408.277C188.986 409.555 188.693 410.727 188.107 411.793C187.521 412.859 186.625 413.867 185.418 414.816C184.797 415.262 184.281 415.678 183.871 416.064C183.461 416.451 183.133 416.873 182.887 417.33C182.641 417.787 182.465 418.314 182.359 418.912C182.266 419.51 182.219 420.248 182.219 421.127H176.717ZM197.266 425.451C197.266 425.018 197.342 424.613 197.494 424.238C197.658 423.852 197.881 423.518 198.162 423.236C198.443 422.943 198.771 422.715 199.146 422.551C199.533 422.387 199.949 422.305 200.395 422.305C200.816 422.305 201.215 422.387 201.59 422.551C201.965 422.715 202.293 422.943 202.574 423.236C202.855 423.518 203.078 423.852 203.242 424.238C203.406 424.613 203.488 425.018 203.488 425.451C203.488 425.885 203.406 426.295 203.242 426.682C203.078 427.057 202.855 427.385 202.574 427.666C202.293 427.947 201.965 428.17 201.59 428.334C201.215 428.498 200.816 428.58 200.395 428.58C199.949 428.58 199.533 428.498 199.146 428.334C198.771 428.17 198.443 427.947 198.162 427.666C197.881 427.385 197.658 427.057 197.494 426.682C197.342 426.295 197.266 425.885 197.266 425.451ZM197.67 421.127C197.67 420.307 197.682 419.586 197.705 418.965C197.729 418.344 197.775 417.793 197.846 417.312C197.928 416.82 198.039 416.387 198.18 416.012C198.332 415.625 198.525 415.268 198.76 414.939C199.006 414.611 199.305 414.295 199.656 413.99C200.008 413.674 200.436 413.34 200.939 412.988C201.479 412.543 201.924 412.139 202.275 411.775C202.627 411.4 202.902 411.031 203.102 410.668C203.301 410.305 203.441 409.93 203.523 409.543C203.605 409.156 203.646 408.723 203.646 408.242C203.646 407.551 203.471 406.988 203.119 406.555C202.779 406.121 202.316 405.904 201.73 405.904C201.367 405.904 201.027 405.945 200.711 406.027C200.406 406.109 200.137 406.262 199.902 406.484C199.668 406.707 199.48 407.012 199.34 407.398C199.211 407.785 199.146 408.283 199.146 408.893L193.557 408.348C193.58 407.059 193.803 405.939 194.225 404.99C194.658 404.029 195.244 403.232 195.982 402.6C196.732 401.967 197.611 401.498 198.619 401.193C199.639 400.877 200.746 400.719 201.941 400.719C203.055 400.719 204.098 400.883 205.07 401.211C206.043 401.539 206.887 402.025 207.602 402.67C208.328 403.314 208.896 404.105 209.307 405.043C209.729 405.98 209.939 407.059 209.939 408.277C209.939 409.555 209.646 410.727 209.061 411.793C208.475 412.859 207.578 413.867 206.371 414.816C205.75 415.262 205.234 415.678 204.824 416.064C204.414 416.451 204.086 416.873 203.84 417.33C203.594 417.787 203.418 418.314 203.312 418.912C203.219 419.51 203.172 420.248 203.172 421.127H197.67ZM218.219 425.451C218.219 425.018 218.295 424.613 218.447 424.238C218.611 423.852 218.834 423.518 219.115 423.236C219.396 422.943 219.725 422.715 220.1 422.551C220.486 422.387 220.902 422.305 221.348 422.305C221.77 422.305 222.168 422.387 222.543 422.551C222.918 422.715 223.246 422.943 223.527 423.236C223.809 423.518 224.031 423.852 224.195 424.238C224.359 424.613 224.441 425.018 224.441 425.451C224.441 425.885 224.359 426.295 224.195 426.682C224.031 427.057 223.809 427.385 223.527 427.666C223.246 427.947 222.918 428.17 222.543 428.334C222.168 428.498 221.77 428.58 221.348 428.58C220.902 428.58 220.486 428.498 220.1 428.334C219.725 428.17 219.396 427.947 219.115 427.666C218.834 427.385 218.611 427.057 218.447 426.682C218.295 426.295 218.219 425.885 218.219 425.451ZM218.623 421.127C218.623 420.307 218.635 419.586 218.658 418.965C218.682 418.344 218.729 417.793 218.799 417.312C218.881 416.82 218.992 416.387 219.133 416.012C219.285 415.625 219.479 415.268 219.713 414.939C219.959 414.611 220.258 414.295 220.609 413.99C220.961 413.674 221.389 413.34 221.893 412.988C222.432 412.543 222.877 412.139 223.229 411.775C223.58 411.4 223.855 411.031 224.055 410.668C224.254 410.305 224.395 409.93 224.477 409.543C224.559 409.156 224.6 408.723 224.6 408.242C224.6 407.551 224.424 406.988 224.072 406.555C223.732 406.121 223.27 405.904 222.684 405.904C222.32 405.904 221.98 405.945 221.664 406.027C221.359 406.109 221.09 406.262 220.855 406.484C220.621 406.707 220.434 407.012 220.293 407.398C220.164 407.785 220.1 408.283 220.1 408.893L214.51 408.348C214.533 407.059 214.756 405.939 215.178 404.99C215.611 404.029 216.197 403.232 216.936 402.6C217.686 401.967 218.564 401.498 219.572 401.193C220.592 400.877 221.699 400.719 222.895 400.719C224.008 400.719 225.051 400.883 226.023 401.211C226.996 401.539 227.84 402.025 228.555 402.67C229.281 403.314 229.85 404.105 230.26 405.043C230.682 405.98 230.893 407.059 230.893 408.277C230.893 409.555 230.6 410.727 230.014 411.793C229.428 412.859 228.531 413.867 227.324 414.816C226.703 415.262 226.188 415.678 225.777 416.064C225.367 416.451 225.039 416.873 224.793 417.33C224.547 417.787 224.371 418.314 224.266 418.912C224.172 419.51 224.125 420.248 224.125 421.127H218.623Z"
    fill="#659FF5" />
  <path d="M61 69.4995L134.938 42.336L214 74.9818L139.259 116.025L61 69.4995Z" fill="#FDD497" />
  <path d="M61 309.144V69.4432L136.402 105.688V351.48L61 309.144Z" fill="#F5C988" />
  <path d="M68.3206 98.3776V89.2403L129.081 118.48V127.617L68.3206 98.3776Z" fill="url(#paint0_angular)" />
  <path d="M68.3206 119.394V110.256L129.081 139.496V148.633L68.3206 119.394Z" fill="url(#paint1_angular)" />
  <path d="M68.3206 140.714V131.576L129.081 160.816V169.953L68.3206 140.714Z" fill="url(#paint2_angular)" />
  <path d="M68.3206 163.862V154.724L129.081 183.964V193.101L68.3206 163.862Z" fill="url(#paint3_angular)" />
  <path d="M68.3206 184.878V175.74L129.081 204.98V214.117L68.3206 184.878Z" fill="url(#paint4_angular)" />
  <path d="M68.3206 206.198V197.061L129.081 226.3V235.437L68.3206 206.198Z" fill="url(#paint5_angular)" />
  <path d="M69.053 229.041V219.904L129.814 249.143V258.28L69.053 229.041Z" fill="url(#paint6_angular)" />
  <path d="M69.053 250.057V240.919L129.814 270.159V279.296L69.053 250.057Z" fill="url(#paint7_angular)" />
  <path d="M69.053 271.377V262.24L129.814 291.479V300.616L69.053 271.377Z" fill="url(#paint8_angular)" />
  <path d="M69.053 291.784V282.646L129.814 311.886V321.023L69.053 291.784Z" fill="url(#paint9_angular)" />
  <path d="M214 315.22V74.9255L136.402 105.688V351.48L214 315.22Z" fill="#D4983F" />
  <path d="M208.144 300.088V295.438L142.258 322.716V327.724L208.144 300.088Z" fill="url(#paint10_angular)" />
  <path d="M208.144 251.964V247.315L142.258 274.593V279.6L208.144 251.964Z" fill="url(#paint11_angular)" />
  <path d="M208.144 203.842V199.193L142.258 226.471V231.478L208.144 203.842Z" fill="url(#paint12_angular)" />
  <path d="M208.144 155.11V150.461L142.258 177.739V182.746L208.144 155.11Z" fill="url(#paint13_angular)" />
  <path d="M208.144 284.25V279.601L142.258 306.879V311.886L208.144 284.25Z" fill="url(#paint14_angular)" />
  <path d="M208.144 236.127V231.478L142.258 258.756V263.763L208.144 236.127Z" fill="url(#paint15_angular)" />
  <path d="M208.144 188.004V183.354L142.258 210.633V215.64L208.144 188.004Z" fill="url(#paint16_angular)" />
  <path d="M208.144 139.271V134.622L142.258 161.9V166.907L208.144 139.271Z" fill="url(#paint17_angular)" />
  <path d="M208.144 107.596V102.947L142.258 130.225V135.232L208.144 107.596Z" fill="url(#paint18_angular)" />
  <path d="M208.144 267.802V263.153L142.258 290.431V295.438L208.144 267.802Z" fill="url(#paint19_angular)" />
  <path d="M208.144 219.68V215.031L142.258 242.309V247.316L208.144 219.68Z" fill="url(#paint20_angular)" />
  <path d="M208.144 171.557V166.908L142.258 194.186V199.193L208.144 171.557Z" fill="url(#paint21_angular)" />
  <path d="M208.144 122.825V118.176L142.258 145.454V150.461L208.144 122.825Z" fill="url(#paint22_angular)" />
  <path d="M208.144 91.1487V86.4996L142.258 113.778V118.785L208.144 91.1487Z" fill="url(#paint23_angular)" />
  <defs>
    <radialGradient id="paint0_angular" cx="0" cy="0" r="1" gradientUnits="userSpaceOnUse"
      gradientTransform="translate(98.7009 108.429) rotate(90) scale(19.1883 30.3804)">
      <stop stop-color="white" />
      <stop offset="0.703125" stop-color="white" stop-opacity="0.979167" />
      <stop offset="1" stop-color="white" stop-opacity="0" />
    </radialGradient>
    <radialGradient id="paint1_angular" cx="0" cy="0" r="1" gradientUnits="userSpaceOnUse"
      gradientTransform="translate(98.7009 129.445) rotate(90) scale(19.1883 30.3804)">
      <stop stop-color="white" />
      <stop offset="0.703125" stop-color="white" stop-opacity="0.979167" />
      <stop offset="1" stop-color="white" stop-opacity="0" />
    </radialGradient>
    <radialGradient id="paint2_angular" cx="0" cy="0" r="1" gradientUnits="userSpaceOnUse"
      gradientTransform="translate(98.7009 150.765) rotate(90) scale(19.1883 30.3804)">
      <stop stop-color="white" />
      <stop offset="0.703125" stop-color="white" stop-opacity="0.979167" />
      <stop offset="1" stop-color="white" stop-opacity="0" />
    </radialGradient>
    <radialGradient id="paint3_angular" cx="0" cy="0" r="1" gradientUnits="userSpaceOnUse"
      gradientTransform="translate(98.7009 173.913) rotate(90) scale(19.1883 30.3804)">
      <stop stop-color="white" />
      <stop offset="0.703125" stop-color="white" stop-opacity="0.979167" />
      <stop offset="1" stop-color="white" stop-opacity="0" />
    </radialGradient>
    <radialGradient id="paint4_angular" cx="0" cy="0" r="1" gradientUnits="userSpaceOnUse"
      gradientTransform="translate(98.7009 194.929) rotate(90) scale(19.1883 30.3804)">
      <stop stop-color="#297FFF" />
      <stop offset="0.703125" stop-color="white" stop-opacity="0.979167" />
      <stop offset="1" stop-color="white" stop-opacity="0" />
    </radialGradient>
    <radialGradient id="paint5_angular" cx="0" cy="0" r="1" gradientUnits="userSpaceOnUse"
      gradientTransform="translate(98.7009 216.249) rotate(90) scale(19.1883 30.3804)">
      <stop stop-color="white" />
      <stop offset="0.703125" stop-color="white" stop-opacity="0.979167" />
      <stop offset="1" stop-color="white" stop-opacity="0" />
    </radialGradient>
    <radialGradient id="paint6_angular" cx="0" cy="0" r="1" gradientUnits="userSpaceOnUse"
      gradientTransform="translate(99.4334 239.092) rotate(90) scale(19.1883 30.3804)">
      <stop stop-color="white" />
      <stop offset="0.703125" stop-color="white" stop-opacity="0.979167" />
      <stop offset="1" stop-color="white" stop-opacity="0" />
    </radialGradient>
    <radialGradient id="paint7_angular" cx="0" cy="0" r="1" gradientUnits="userSpaceOnUse"
      gradientTransform="translate(99.4334 260.108) rotate(90) scale(19.1883 30.3804)">
      <stop stop-color="white" />
      <stop offset="0.703125" stop-color="white" stop-opacity="0.979167" />
      <stop offset="1" stop-color="white" stop-opacity="0" />
    </radialGradient>
    <radialGradient id="paint8_angular" cx="0" cy="0" r="1" gradientUnits="userSpaceOnUse"
      gradientTransform="translate(99.4334 281.428) rotate(90) scale(19.1883 30.3804)">
      <stop stop-color="white" />
      <stop offset="0.703125" stop-color="white" stop-opacity="0.979167" />
      <stop offset="1" stop-color="white" stop-opacity="0" />
    </radialGradient>
    <radialGradient id="paint9_angular" cx="0" cy="0" r="1" gradientUnits="userSpaceOnUse"
      gradientTransform="translate(99.4334 301.835) rotate(90) scale(19.1883 30.3804)">
      <stop stop-color="white" />
      <stop offset="0.703125" stop-color="white" stop-opacity="0.979167" />
      <stop offset="1" stop-color="white" stop-opacity="0" />
    </radialGradient>
    <radialGradient id="paint10_angular" cx="0" cy="0" r="1" gradientUnits="userSpaceOnUse"
      gradientTransform="translate(175.201 311.581) rotate(90) scale(16.1425 32.9426)">
      <stop stop-color="#B8C5D0" />
      <stop offset="0.598958" stop-color="#B8C5D0" stop-opacity="0.984375" />
      <stop offset="1" stop-color="#B8C5D0" stop-opacity="0" />
    </radialGradient>
    <radialGradient id="paint11_angular" cx="0" cy="0" r="1" gradientUnits="userSpaceOnUse"
      gradientTransform="translate(175.201 263.458) rotate(90) scale(16.1425 32.9426)">
      <stop stop-color="#B8C5D0" />
      <stop offset="0.598958" stop-color="#B8C5D0" stop-opacity="0.984375" />
      <stop offset="1" stop-color="#B8C5D0" stop-opacity="0" />
    </radialGradient>
    <radialGradient id="paint12_angular" cx="0" cy="0" r="1" gradientUnits="userSpaceOnUse"
      gradientTransform="translate(175.201 215.335) rotate(90) scale(16.1425 32.9426)">
      <stop stop-color="#B8C5D0" />
      <stop offset="0.598958" stop-color="#B8C5D0" stop-opacity="0.984375" />
      <stop offset="1" stop-color="#B8C5D0" stop-opacity="0" />
    </radialGradient>
    <radialGradient id="paint13_angular" cx="0" cy="0" r="1" gradientUnits="userSpaceOnUse"
      gradientTransform="translate(175.201 166.603) rotate(90) scale(16.1425 32.9426)">
      <stop stop-color="#B8C5D0" />
      <stop offset="0.598958" stop-color="#B8C5D0" stop-opacity="0.984375" />
      <stop offset="1" stop-color="#B8C5D0" stop-opacity="0" />
    </radialGradient>
    <radialGradient id="paint14_angular" cx="0" cy="0" r="1" gradientUnits="userSpaceOnUse"
      gradientTransform="translate(175.201 295.743) rotate(90) scale(16.1425 32.9426)">
      <stop stop-color="#B8C5D0" />
      <stop offset="0.598958" stop-color="#B8C5D0" stop-opacity="0.984375" />
      <stop offset="1" stop-color="#B8C5D0" stop-opacity="0" />
    </radialGradient>
    <radialGradient id="paint15_angular" cx="0" cy="0" r="1" gradientUnits="userSpaceOnUse"
      gradientTransform="translate(175.201 247.62) rotate(90) scale(16.1425 32.9426)">
      <stop stop-color="#B8C5D0" />
      <stop offset="0.598958" stop-color="#B8C5D0" stop-opacity="0.984375" />
      <stop offset="1" stop-color="#B8C5D0" stop-opacity="0" />
    </radialGradient>
    <radialGradient id="paint16_angular" cx="0" cy="0" r="1" gradientUnits="userSpaceOnUse"
      gradientTransform="translate(175.201 199.497) rotate(90) scale(16.1425 32.9426)">
      <stop stop-color="#B8C5D0" />
      <stop offset="0.598958" stop-color="#B8C5D0" stop-opacity="0.984375" />
      <stop offset="1" stop-color="#B8C5D0" stop-opacity="0" />
    </radialGradient>
    <radialGradient id="paint17_angular" cx="0" cy="0" r="1" gradientUnits="userSpaceOnUse"
      gradientTransform="translate(175.201 150.765) rotate(90) scale(16.1425 32.9426)">
      <stop stop-color="#B8C5D0" />
      <stop offset="0.598958" stop-color="#B8C5D0" stop-opacity="0.984375" />
      <stop offset="1" stop-color="#B8C5D0" stop-opacity="0" />
    </radialGradient>
    <radialGradient id="paint18_angular" cx="0" cy="0" r="1" gradientUnits="userSpaceOnUse"
      gradientTransform="translate(175.201 119.089) rotate(90) scale(16.1425 32.9426)">
      <stop stop-color="#B8C5D0" />
      <stop offset="0.598958" stop-color="#B8C5D0" stop-opacity="0.984375" />
      <stop offset="1" stop-color="#B8C5D0" stop-opacity="0" />
    </radialGradient>
    <radialGradient id="paint19_angular" cx="0" cy="0" r="1" gradientUnits="userSpaceOnUse"
      gradientTransform="translate(175.201 279.296) rotate(90) scale(16.1425 32.9426)">
      <stop stop-color="#B8C5D0" />
      <stop offset="0.598958" stop-color="#B8C5D0" stop-opacity="0.984375" />
      <stop offset="1" stop-color="#B8C5D0" stop-opacity="0" />
    </radialGradient>
    <radialGradient id="paint20_angular" cx="0" cy="0" r="1" gradientUnits="userSpaceOnUse"
      gradientTransform="translate(175.201 231.173) rotate(90) scale(16.1425 32.9426)">
      <stop stop-color="#B8C5D0" />
      <stop offset="0.598958" stop-color="#B8C5D0" stop-opacity="0.984375" />
      <stop offset="1" stop-color="#B8C5D0" stop-opacity="0" />
    </radialGradient>
    <radialGradient id="paint21_angular" cx="0" cy="0" r="1" gradientUnits="userSpaceOnUse"
      gradientTransform="translate(175.201 183.05) rotate(90) scale(16.1425 32.9426)">
      <stop stop-color="#B8C5D0" />
      <stop offset="0.598958" stop-color="#B8C5D0" stop-opacity="0.984375" />
      <stop offset="1" stop-color="#B8C5D0" stop-opacity="0" />
    </radialGradient>
    <radialGradient id="paint22_angular" cx="0" cy="0" r="1" gradientUnits="userSpaceOnUse"
      gradientTransform="translate(175.201 134.318) rotate(90) scale(16.1425 32.9426)">
      <stop stop-color="#B8C5D0" />
      <stop offset="0.598958" stop-color="#B8C5D0" stop-opacity="0.984375" />
      <stop offset="1" stop-color="#B8C5D0" stop-opacity="0" />
    </radialGradient>
    <radialGradient id="paint23_angular" cx="0" cy="0" r="1" gradientUnits="userSpaceOnUse"
      gradientTransform="translate(175.201 102.642) rotate(90) scale(16.1425 32.9426)">
      <stop stop-color="#B8C5D0" />
      <stop offset="0.598958" stop-color="#B8C5D0" stop-opacity="0.984375" />
      <stop offset="1" stop-color="#B8C5D0" stop-opacity="0" />
    </radialGradient>
  </defs>
</svg>
