<svg width="383" height="373" viewBox="0 0 383 373" fill="none" xmlns="http://www.w3.org/2000/svg">
  <path
    d="M57.9766 355.859H59.1562L58.625 354.156H54.9844L54.4531 355.859H55.7031V358H51.2109V355.859H52.0938L55.3203 346.156H58.4531L61.6094 355.859H62.4688V358H57.9766V355.859ZM55.6016 352.156H57.9922L56.7891 348.305L55.6016 352.156ZM65.3766 349.906H69.6031V352.047H68.6187L69.9391 355.523L71.2125 352.047H70.3375V349.906H74.5641V352.047H73.4859L71.0719 358.031H68.6891L66.275 352.047H65.3766V349.906ZM80.0109 354.461L80.0344 354.703C80.0917 354.938 80.188 355.143 80.3234 355.32C80.4641 355.497 80.6281 355.646 80.8156 355.766C81.0031 355.885 81.2115 355.977 81.4406 356.039C81.6698 356.096 81.9016 356.125 82.1359 356.125C82.3703 356.125 82.5917 356.112 82.8 356.086C83.0135 356.055 83.2193 356.016 83.4172 355.969C83.6151 355.917 83.8078 355.859 83.9953 355.797C84.1828 355.729 84.3729 355.659 84.5656 355.586L85.425 357.188C85.1281 357.37 84.8547 357.526 84.6047 357.656C84.3599 357.781 84.1125 357.885 83.8625 357.969C83.6125 358.052 83.3469 358.112 83.0656 358.148C82.7844 358.19 82.4562 358.211 82.0812 358.211C81.3781 358.211 80.7531 358.096 80.2062 357.867C79.6594 357.633 79.1984 357.318 78.8234 356.922C78.4536 356.526 78.1698 356.062 77.9719 355.531C77.7792 355 77.6828 354.438 77.6828 353.844C77.6828 353.25 77.7844 352.693 77.9875 352.172C78.1958 351.651 78.4875 351.198 78.8625 350.812C79.2375 350.422 79.6854 350.115 80.2062 349.891C80.7271 349.667 81.3052 349.555 81.9406 349.555C82.576 349.555 83.1385 349.661 83.6281 349.875C84.1229 350.083 84.5396 350.375 84.8781 350.75C85.2167 351.12 85.4771 351.557 85.6594 352.062C85.8417 352.562 85.9406 353.102 85.9562 353.68C85.9719 353.81 85.9797 353.94 85.9797 354.07C85.9849 354.195 85.9823 354.326 85.9719 354.461H80.0109ZM81.8781 351.508C81.5865 351.508 81.3365 351.544 81.1281 351.617C80.925 351.685 80.7531 351.781 80.6125 351.906C80.4719 352.026 80.3599 352.164 80.2766 352.32C80.1932 352.477 80.1281 352.641 80.0812 352.812H83.4641C83.4276 352.635 83.3755 352.469 83.3078 352.312C83.2401 352.156 83.1464 352.018 83.0266 351.898C82.9068 351.779 82.7531 351.685 82.5656 351.617C82.3833 351.544 82.1542 351.508 81.8781 351.508ZM96.9188 352.852H94.7234V352.016C94.5099 352.016 94.3146 352.031 94.1375 352.062C93.9604 352.089 93.8042 352.135 93.6688 352.203C93.5385 352.271 93.4266 352.365 93.3328 352.484C93.2443 352.604 93.1818 352.753 93.1453 352.93V355.859H94.7938V358H89.5125V355.859H90.7234V352.047H89.5281V349.906H93.1297V350.477C93.3589 350.294 93.6167 350.154 93.9031 350.055C94.1896 349.956 94.5021 349.906 94.8406 349.906C95.1844 349.906 95.5385 349.909 95.9031 349.914C96.2677 349.919 96.6063 349.922 96.9188 349.922V352.852ZM105.623 357.562C105.441 357.677 105.274 357.776 105.123 357.859C104.972 357.938 104.821 358 104.67 358.047C104.519 358.099 104.363 358.135 104.202 358.156C104.04 358.182 103.863 358.195 103.67 358.195C103.186 358.195 102.751 358.13 102.366 358C101.985 357.865 101.662 357.682 101.397 357.453C101.136 357.219 100.936 356.945 100.795 356.633C100.655 356.315 100.584 355.971 100.584 355.602C100.584 355.227 100.655 354.88 100.795 354.562C100.941 354.245 101.149 353.974 101.42 353.75C101.691 353.521 102.022 353.344 102.412 353.219C102.808 353.089 103.259 353.023 103.764 353.023C104.134 353.023 104.47 353.044 104.772 353.086C105.079 353.122 105.363 353.169 105.623 353.227V352.977C105.623 352.773 105.584 352.599 105.506 352.453C105.428 352.302 105.319 352.18 105.178 352.086C105.037 351.987 104.868 351.917 104.67 351.875C104.472 351.828 104.256 351.805 104.022 351.805C103.532 351.805 103.1 351.854 102.725 351.953C102.355 352.047 101.998 352.185 101.655 352.367L100.905 350.852C101.436 350.487 101.991 350.208 102.569 350.016C103.152 349.823 103.769 349.727 104.42 349.727C104.926 349.727 105.392 349.784 105.819 349.898C106.251 350.008 106.621 350.19 106.928 350.445C107.235 350.695 107.475 351.023 107.647 351.43C107.824 351.836 107.912 352.331 107.912 352.914V355.859H108.998V358H105.623V357.562ZM103.842 356.352C104.212 356.352 104.548 356.292 104.85 356.172C105.152 356.052 105.41 355.906 105.623 355.734V354.703H103.748C103.629 354.703 103.511 354.721 103.397 354.758C103.282 354.794 103.178 354.846 103.084 354.914C102.996 354.982 102.923 355.065 102.866 355.164C102.814 355.263 102.787 355.378 102.787 355.508C102.787 355.747 102.873 355.948 103.045 356.109C103.222 356.271 103.488 356.352 103.842 356.352ZM119.055 357.578C118.763 357.745 118.471 357.865 118.18 357.938C117.888 358.01 117.591 358.047 117.289 358.047C116.664 358.047 116.089 357.94 115.562 357.727C115.036 357.513 114.581 357.219 114.195 356.844C113.815 356.464 113.518 356.016 113.305 355.5C113.091 354.984 112.984 354.424 112.984 353.82C112.984 353.253 113.086 352.719 113.289 352.219C113.497 351.714 113.786 351.273 114.156 350.898C114.526 350.518 114.969 350.219 115.484 350C116 349.781 116.56 349.669 117.164 349.664C117.534 349.669 117.872 349.708 118.18 349.781C118.492 349.854 118.784 349.953 119.055 350.078V349.906H121.422V357.664C121.422 358.346 121.305 358.935 121.07 359.43C120.836 359.93 120.521 360.341 120.125 360.664C119.734 360.992 119.279 361.234 118.758 361.391C118.237 361.552 117.69 361.633 117.117 361.633C116.409 361.633 115.753 361.536 115.148 361.344C114.549 361.151 114.016 360.891 113.547 360.562L114.523 358.828C114.883 359.057 115.273 359.237 115.695 359.367C116.117 359.503 116.586 359.57 117.102 359.57C117.383 359.57 117.641 359.539 117.875 359.477C118.115 359.414 118.32 359.307 118.492 359.156C118.669 359.01 118.807 358.812 118.906 358.562C119.005 358.312 119.055 357.997 119.055 357.617V357.578ZM117.367 355.883C117.732 355.883 118.06 355.792 118.352 355.609C118.648 355.422 118.883 355.177 119.055 354.875L119.07 352.906C118.893 352.578 118.651 352.318 118.344 352.125C118.036 351.932 117.703 351.833 117.344 351.828C117.089 351.833 116.839 351.885 116.594 351.984C116.349 352.078 116.135 352.214 115.953 352.391C115.776 352.568 115.635 352.779 115.531 353.023C115.427 353.263 115.375 353.531 115.375 353.828C115.375 354.141 115.427 354.424 115.531 354.68C115.635 354.935 115.776 355.151 115.953 355.328C116.13 355.505 116.339 355.643 116.578 355.742C116.823 355.836 117.086 355.883 117.367 355.883ZM127.673 354.461L127.697 354.703C127.754 354.938 127.851 355.143 127.986 355.32C128.127 355.497 128.291 355.646 128.478 355.766C128.666 355.885 128.874 355.977 129.103 356.039C129.332 356.096 129.564 356.125 129.798 356.125C130.033 356.125 130.254 356.112 130.463 356.086C130.676 356.055 130.882 356.016 131.08 355.969C131.278 355.917 131.47 355.859 131.658 355.797C131.845 355.729 132.035 355.659 132.228 355.586L133.088 357.188C132.791 357.37 132.517 357.526 132.267 357.656C132.022 357.781 131.775 357.885 131.525 357.969C131.275 358.052 131.009 358.112 130.728 358.148C130.447 358.19 130.119 358.211 129.744 358.211C129.041 358.211 128.416 358.096 127.869 357.867C127.322 357.633 126.861 357.318 126.486 356.922C126.116 356.526 125.832 356.062 125.634 355.531C125.442 355 125.345 354.438 125.345 353.844C125.345 353.25 125.447 352.693 125.65 352.172C125.858 351.651 126.15 351.198 126.525 350.812C126.9 350.422 127.348 350.115 127.869 349.891C128.39 349.667 128.968 349.555 129.603 349.555C130.239 349.555 130.801 349.661 131.291 349.875C131.785 350.083 132.202 350.375 132.541 350.75C132.879 351.12 133.14 351.557 133.322 352.062C133.504 352.562 133.603 353.102 133.619 353.68C133.634 353.81 133.642 353.94 133.642 354.07C133.647 354.195 133.645 354.326 133.634 354.461H127.673ZM129.541 351.508C129.249 351.508 128.999 351.544 128.791 351.617C128.588 351.685 128.416 351.781 128.275 351.906C128.134 352.026 128.022 352.164 127.939 352.32C127.856 352.477 127.791 352.641 127.744 352.812H131.127C131.09 352.635 131.038 352.469 130.97 352.312C130.903 352.156 130.809 352.018 130.689 351.898C130.569 351.779 130.416 351.685 130.228 351.617C130.046 351.544 129.817 351.508 129.541 351.508ZM142.661 345.844H146.309V350.656C146.617 350.375 146.953 350.156 147.317 350C147.687 349.839 148.093 349.758 148.536 349.758C149.51 349.758 150.255 350.031 150.77 350.578C151.286 351.12 151.544 351.914 151.544 352.961V355.859H152.731V358H149.114V353.508C149.114 353.055 149.002 352.698 148.778 352.438C148.554 352.177 148.265 352.047 147.911 352.047C147.677 352.047 147.421 352.112 147.145 352.242C146.869 352.372 146.591 352.562 146.309 352.812V355.859H147.497V358H142.661V355.859H143.911V347.984H142.661V345.844ZM156.006 353.922C156.006 353.333 156.113 352.781 156.327 352.266C156.54 351.75 156.837 351.299 157.217 350.914C157.597 350.529 158.051 350.224 158.577 350C159.103 349.776 159.681 349.664 160.311 349.664C160.941 349.664 161.519 349.776 162.045 350C162.577 350.224 163.032 350.529 163.412 350.914C163.793 351.299 164.087 351.75 164.295 352.266C164.509 352.781 164.616 353.333 164.616 353.922C164.616 354.51 164.511 355.065 164.303 355.586C164.1 356.102 163.808 356.555 163.428 356.945C163.053 357.331 162.6 357.635 162.069 357.859C161.543 358.083 160.957 358.195 160.311 358.195C159.66 358.195 159.069 358.083 158.537 357.859C158.011 357.635 157.561 357.331 157.186 356.945C156.811 356.56 156.519 356.109 156.311 355.594C156.108 355.073 156.006 354.516 156.006 353.922ZM158.342 353.922C158.342 354.229 158.394 354.513 158.498 354.773C158.603 355.029 158.743 355.25 158.92 355.438C159.103 355.625 159.311 355.771 159.545 355.875C159.785 355.979 160.04 356.031 160.311 356.031C160.587 356.031 160.842 355.982 161.077 355.883C161.316 355.779 161.522 355.633 161.694 355.445C161.871 355.258 162.009 355.036 162.108 354.781C162.207 354.521 162.256 354.234 162.256 353.922C162.256 353.599 162.207 353.307 162.108 353.047C162.009 352.786 161.871 352.565 161.694 352.383C161.522 352.201 161.316 352.062 161.077 351.969C160.842 351.87 160.587 351.823 160.311 351.828C160.04 351.823 159.785 351.87 159.545 351.969C159.311 352.062 159.103 352.201 158.92 352.383C158.743 352.565 158.603 352.786 158.498 353.047C158.394 353.307 158.342 353.599 158.342 353.922ZM173.227 349.906H177.055V355.859H178.031V358H174.602V357.312C174.326 357.562 174.003 357.755 173.633 357.891C173.263 358.026 172.836 358.094 172.352 358.094C171.904 358.094 171.482 358.023 171.086 357.883C170.69 357.742 170.344 357.531 170.047 357.25C169.755 356.964 169.523 356.607 169.352 356.18C169.185 355.753 169.102 355.25 169.102 354.672V352.047H168.047V349.906H171.625V354.672C171.625 355.214 171.763 355.62 172.039 355.891C172.315 356.156 172.674 356.289 173.117 356.289C173.43 356.289 173.714 356.193 173.969 356C174.224 355.807 174.409 355.547 174.523 355.219V352.047H173.227V349.906ZM186.783 352.383C186.783 352.258 186.741 352.138 186.658 352.023C186.58 351.909 186.462 351.81 186.306 351.727C186.15 351.638 185.957 351.568 185.728 351.516C185.504 351.464 185.249 351.438 184.962 351.438C184.853 351.438 184.736 351.448 184.611 351.469C184.486 351.484 184.369 351.516 184.259 351.562C184.155 351.609 184.067 351.674 183.994 351.758C183.926 351.836 183.892 351.938 183.892 352.062C183.892 352.125 183.9 352.185 183.916 352.242C183.936 352.299 183.973 352.354 184.025 352.406C184.077 352.458 184.147 352.508 184.236 352.555C184.33 352.596 184.449 352.63 184.595 352.656L186.064 352.945C186.595 353.049 187.041 353.18 187.4 353.336C187.759 353.492 188.048 353.674 188.267 353.883C188.486 354.091 188.642 354.323 188.736 354.578C188.835 354.833 188.884 355.109 188.884 355.406C188.884 355.87 188.775 356.276 188.556 356.625C188.343 356.974 188.059 357.266 187.705 357.5C187.356 357.729 186.96 357.901 186.517 358.016C186.08 358.135 185.637 358.195 185.189 358.195C184.897 358.195 184.632 358.177 184.392 358.141C184.158 358.104 183.944 358.055 183.752 357.992C183.564 357.93 183.395 357.857 183.244 357.773C183.098 357.685 182.962 357.589 182.837 357.484H181.423V355.312H183.634V355.359C183.64 355.51 183.686 355.643 183.775 355.758C183.864 355.867 183.978 355.961 184.119 356.039C184.265 356.117 184.429 356.177 184.611 356.219C184.793 356.255 184.986 356.273 185.189 356.273C185.658 356.273 185.999 356.214 186.212 356.094C186.426 355.969 186.533 355.81 186.533 355.617C186.533 355.466 186.481 355.339 186.377 355.234C186.272 355.125 186.087 355.039 185.822 354.977L184.322 354.656C183.379 354.474 182.668 354.172 182.189 353.75C181.71 353.323 181.47 352.776 181.47 352.109C181.47 351.719 181.561 351.365 181.744 351.047C181.926 350.724 182.173 350.451 182.486 350.227C182.798 349.997 183.163 349.82 183.58 349.695C184.002 349.57 184.452 349.508 184.931 349.508C185.259 349.508 185.551 349.529 185.806 349.57C186.061 349.607 186.291 349.656 186.494 349.719C186.697 349.781 186.874 349.857 187.025 349.945C187.181 350.029 187.319 350.117 187.439 350.211H188.798V352.383H186.783ZM194.73 354.461L194.753 354.703C194.81 354.938 194.907 355.143 195.042 355.32C195.183 355.497 195.347 355.646 195.534 355.766C195.722 355.885 195.93 355.977 196.159 356.039C196.389 356.096 196.62 356.125 196.855 356.125C197.089 356.125 197.31 356.112 197.519 356.086C197.732 356.055 197.938 356.016 198.136 355.969C198.334 355.917 198.527 355.859 198.714 355.797C198.902 355.729 199.092 355.659 199.284 355.586L200.144 357.188C199.847 357.37 199.573 357.526 199.323 357.656C199.079 357.781 198.831 357.885 198.581 357.969C198.331 358.052 198.066 358.112 197.784 358.148C197.503 358.19 197.175 358.211 196.8 358.211C196.097 358.211 195.472 358.096 194.925 357.867C194.378 357.633 193.917 357.318 193.542 356.922C193.172 356.526 192.889 356.062 192.691 355.531C192.498 355 192.402 354.438 192.402 353.844C192.402 353.25 192.503 352.693 192.706 352.172C192.915 351.651 193.206 351.198 193.581 350.812C193.956 350.422 194.404 350.115 194.925 349.891C195.446 349.667 196.024 349.555 196.659 349.555C197.295 349.555 197.857 349.661 198.347 349.875C198.842 350.083 199.258 350.375 199.597 350.75C199.935 351.12 200.196 351.557 200.378 352.062C200.56 352.562 200.659 353.102 200.675 353.68C200.691 353.81 200.698 353.94 200.698 354.07C200.704 354.195 200.701 354.326 200.691 354.461H194.73ZM196.597 351.508C196.305 351.508 196.055 351.544 195.847 351.617C195.644 351.685 195.472 351.781 195.331 351.906C195.191 352.026 195.079 352.164 194.995 352.32C194.912 352.477 194.847 352.641 194.8 352.812H198.183C198.146 352.635 198.094 352.469 198.027 352.312C197.959 352.156 197.865 352.018 197.745 351.898C197.626 351.779 197.472 351.685 197.284 351.617C197.102 351.544 196.873 351.508 196.597 351.508Z"
    fill="#9FA3A7" />
  <path
    d="M224.223 365.305V359.645C223.59 359.457 222.998 359.211 222.447 358.906C221.908 358.602 221.428 358.227 221.006 357.781H217.912V352.49H223.924C223.924 352.912 223.994 353.299 224.135 353.65C224.275 353.99 224.48 354.289 224.75 354.547C225.02 354.793 225.348 354.986 225.734 355.127C226.133 355.268 226.59 355.338 227.105 355.338C227.715 355.338 228.178 355.215 228.494 354.969C228.811 354.723 228.969 354.4 228.969 354.002C228.969 353.814 228.91 353.645 228.793 353.492C228.676 353.328 228.523 353.182 228.336 353.053C228.148 352.924 227.932 352.812 227.686 352.719C227.451 352.613 227.217 352.525 226.982 352.455L223.713 351.453C223.057 351.254 222.436 351.002 221.85 350.697C221.275 350.381 220.771 349.994 220.338 349.537C219.904 349.08 219.559 348.541 219.301 347.92C219.055 347.287 218.932 346.555 218.932 345.723C218.932 344.902 219.061 344.17 219.318 343.525C219.576 342.869 219.939 342.301 220.408 341.82C220.877 341.34 221.434 340.947 222.078 340.643C222.734 340.326 223.449 340.092 224.223 339.939V334.244H230.059V340.238C230.551 340.402 231.002 340.59 231.412 340.801C231.822 341.012 232.186 341.24 232.502 341.486H235.666V346.777H229.654C229.643 346.344 229.572 345.975 229.443 345.67C229.314 345.354 229.127 345.084 228.881 344.861C228.635 344.639 228.336 344.463 227.984 344.334C227.633 344.205 227.229 344.141 226.771 344.141C226.197 344.141 225.752 344.246 225.436 344.457C225.131 344.668 224.979 344.961 224.979 345.336C224.979 345.547 225.043 345.734 225.172 345.898C225.301 346.051 225.477 346.197 225.699 346.338C225.922 346.467 226.186 346.59 226.49 346.707C226.795 346.812 227.117 346.918 227.457 347.023L230.586 348.025C232.156 348.518 233.316 349.209 234.066 350.1C234.816 350.979 235.191 352.127 235.191 353.545C235.191 354.295 235.068 354.992 234.822 355.637C234.588 356.281 234.248 356.867 233.803 357.395C233.357 357.922 232.818 358.379 232.186 358.766C231.553 359.141 230.844 359.439 230.059 359.662V365.305H224.223ZM243.312 359.451C243.312 359.018 243.389 358.613 243.541 358.238C243.705 357.852 243.928 357.518 244.209 357.236C244.49 356.943 244.818 356.715 245.193 356.551C245.58 356.387 245.996 356.305 246.441 356.305C246.863 356.305 247.262 356.387 247.637 356.551C248.012 356.715 248.34 356.943 248.621 357.236C248.902 357.518 249.125 357.852 249.289 358.238C249.453 358.613 249.535 359.018 249.535 359.451C249.535 359.885 249.453 360.295 249.289 360.682C249.125 361.057 248.902 361.385 248.621 361.666C248.34 361.947 248.012 362.17 247.637 362.334C247.262 362.498 246.863 362.58 246.441 362.58C245.996 362.58 245.58 362.498 245.193 362.334C244.818 362.17 244.49 361.947 244.209 361.666C243.928 361.385 243.705 361.057 243.541 360.682C243.389 360.295 243.312 359.885 243.312 359.451ZM243.717 355.127C243.717 354.307 243.729 353.586 243.752 352.965C243.775 352.344 243.822 351.793 243.893 351.312C243.975 350.82 244.086 350.387 244.227 350.012C244.379 349.625 244.572 349.268 244.807 348.939C245.053 348.611 245.352 348.295 245.703 347.99C246.055 347.674 246.482 347.34 246.986 346.988C247.525 346.543 247.971 346.139 248.322 345.775C248.674 345.4 248.949 345.031 249.148 344.668C249.348 344.305 249.488 343.93 249.57 343.543C249.652 343.156 249.693 342.723 249.693 342.242C249.693 341.551 249.518 340.988 249.166 340.555C248.826 340.121 248.363 339.904 247.777 339.904C247.414 339.904 247.074 339.945 246.758 340.027C246.453 340.109 246.184 340.262 245.949 340.484C245.715 340.707 245.527 341.012 245.387 341.398C245.258 341.785 245.193 342.283 245.193 342.893L239.604 342.348C239.627 341.059 239.85 339.939 240.271 338.99C240.705 338.029 241.291 337.232 242.029 336.6C242.779 335.967 243.658 335.498 244.666 335.193C245.686 334.877 246.793 334.719 247.988 334.719C249.102 334.719 250.145 334.883 251.117 335.211C252.09 335.539 252.934 336.025 253.648 336.67C254.375 337.314 254.943 338.105 255.354 339.043C255.775 339.98 255.986 341.059 255.986 342.277C255.986 343.555 255.693 344.727 255.107 345.793C254.521 346.859 253.625 347.867 252.418 348.816C251.797 349.262 251.281 349.678 250.871 350.064C250.461 350.451 250.133 350.873 249.887 351.33C249.641 351.787 249.465 352.314 249.359 352.912C249.266 353.51 249.219 354.248 249.219 355.127H243.717ZM264.266 359.451C264.266 359.018 264.342 358.613 264.494 358.238C264.658 357.852 264.881 357.518 265.162 357.236C265.443 356.943 265.771 356.715 266.146 356.551C266.533 356.387 266.949 356.305 267.395 356.305C267.816 356.305 268.215 356.387 268.59 356.551C268.965 356.715 269.293 356.943 269.574 357.236C269.855 357.518 270.078 357.852 270.242 358.238C270.406 358.613 270.488 359.018 270.488 359.451C270.488 359.885 270.406 360.295 270.242 360.682C270.078 361.057 269.855 361.385 269.574 361.666C269.293 361.947 268.965 362.17 268.59 362.334C268.215 362.498 267.816 362.58 267.395 362.58C266.949 362.58 266.533 362.498 266.146 362.334C265.771 362.17 265.443 361.947 265.162 361.666C264.881 361.385 264.658 361.057 264.494 360.682C264.342 360.295 264.266 359.885 264.266 359.451ZM264.67 355.127C264.67 354.307 264.682 353.586 264.705 352.965C264.729 352.344 264.775 351.793 264.846 351.312C264.928 350.82 265.039 350.387 265.18 350.012C265.332 349.625 265.525 349.268 265.76 348.939C266.006 348.611 266.305 348.295 266.656 347.99C267.008 347.674 267.436 347.34 267.939 346.988C268.479 346.543 268.924 346.139 269.275 345.775C269.627 345.4 269.902 345.031 270.102 344.668C270.301 344.305 270.441 343.93 270.523 343.543C270.605 343.156 270.646 342.723 270.646 342.242C270.646 341.551 270.471 340.988 270.119 340.555C269.779 340.121 269.316 339.904 268.73 339.904C268.367 339.904 268.027 339.945 267.711 340.027C267.406 340.109 267.137 340.262 266.902 340.484C266.668 340.707 266.48 341.012 266.34 341.398C266.211 341.785 266.146 342.283 266.146 342.893L260.557 342.348C260.58 341.059 260.803 339.939 261.225 338.99C261.658 338.029 262.244 337.232 262.982 336.6C263.732 335.967 264.611 335.498 265.619 335.193C266.639 334.877 267.746 334.719 268.941 334.719C270.055 334.719 271.098 334.883 272.07 335.211C273.043 335.539 273.887 336.025 274.602 336.67C275.328 337.314 275.896 338.105 276.307 339.043C276.729 339.98 276.939 341.059 276.939 342.277C276.939 343.555 276.646 344.727 276.061 345.793C275.475 346.859 274.578 347.867 273.371 348.816C272.75 349.262 272.234 349.678 271.824 350.064C271.414 350.451 271.086 350.873 270.84 351.33C270.594 351.787 270.418 352.314 270.312 352.912C270.219 353.51 270.172 354.248 270.172 355.127H264.67ZM285.219 359.451C285.219 359.018 285.295 358.613 285.447 358.238C285.611 357.852 285.834 357.518 286.115 357.236C286.396 356.943 286.725 356.715 287.1 356.551C287.486 356.387 287.902 356.305 288.348 356.305C288.77 356.305 289.168 356.387 289.543 356.551C289.918 356.715 290.246 356.943 290.527 357.236C290.809 357.518 291.031 357.852 291.195 358.238C291.359 358.613 291.441 359.018 291.441 359.451C291.441 359.885 291.359 360.295 291.195 360.682C291.031 361.057 290.809 361.385 290.527 361.666C290.246 361.947 289.918 362.17 289.543 362.334C289.168 362.498 288.77 362.58 288.348 362.58C287.902 362.58 287.486 362.498 287.1 362.334C286.725 362.17 286.396 361.947 286.115 361.666C285.834 361.385 285.611 361.057 285.447 360.682C285.295 360.295 285.219 359.885 285.219 359.451ZM285.623 355.127C285.623 354.307 285.635 353.586 285.658 352.965C285.682 352.344 285.729 351.793 285.799 351.312C285.881 350.82 285.992 350.387 286.133 350.012C286.285 349.625 286.479 349.268 286.713 348.939C286.959 348.611 287.258 348.295 287.609 347.99C287.961 347.674 288.389 347.34 288.893 346.988C289.432 346.543 289.877 346.139 290.229 345.775C290.58 345.4 290.855 345.031 291.055 344.668C291.254 344.305 291.395 343.93 291.477 343.543C291.559 343.156 291.6 342.723 291.6 342.242C291.6 341.551 291.424 340.988 291.072 340.555C290.732 340.121 290.27 339.904 289.684 339.904C289.32 339.904 288.98 339.945 288.664 340.027C288.359 340.109 288.09 340.262 287.855 340.484C287.621 340.707 287.434 341.012 287.293 341.398C287.164 341.785 287.1 342.283 287.1 342.893L281.51 342.348C281.533 341.059 281.756 339.939 282.178 338.99C282.611 338.029 283.197 337.232 283.936 336.6C284.686 335.967 285.564 335.498 286.572 335.193C287.592 334.877 288.699 334.719 289.895 334.719C291.008 334.719 292.051 334.883 293.023 335.211C293.996 335.539 294.84 336.025 295.555 336.67C296.281 337.314 296.85 338.105 297.26 339.043C297.682 339.98 297.893 341.059 297.893 342.277C297.893 343.555 297.6 344.727 297.014 345.793C296.428 346.859 295.531 347.867 294.324 348.816C293.703 349.262 293.188 349.678 292.777 350.064C292.367 350.451 292.039 350.873 291.793 351.33C291.547 351.787 291.371 352.314 291.266 352.912C291.172 353.51 291.125 354.248 291.125 355.127H285.623Z"
    fill="#659FF5" />
  <path d="M296.962 223.201V107.967L194.705 169.218V285.49L296.962 223.201Z" fill="#F5C988" />
  <path d="M282.171 158.49V146.378L215.73 185.136V197.247L282.171 158.49Z" fill="url(#paint0_angular)" />
  <path d="M282.171 185.482V173.37L215.73 212.128V224.239L282.171 185.482Z" fill="url(#paint1_angular)" />
  <path d="M283.209 212.474V200.362L216.768 239.119V251.231L283.209 212.474Z" fill="url(#paint2_angular)" />
  <path d="M91.4092 223.201V107.967L195.224 169.218V285.49L91.4092 223.201Z" fill="#D5983F" />
  <path d="M97.6382 142.226V132.883L187.957 187.704V197.767L97.6382 142.226Z" fill="url(#paint3_angular)" />
  <path d="M97.6382 170.256V160.913L187.957 215.734V225.797L97.6382 170.256Z" fill="url(#paint4_angular)" />
  <path d="M97.6382 198.286V188.943L187.957 243.764V253.827L97.6382 198.286Z" fill="url(#paint5_angular)" />
  <path d="M194.705 169.218L297.481 107.967L218.582 94.4715L142.279 62.8081L194.705 169.218Z" fill="#F5C988" />
  <path d="M245.577 99.1433L144.355 46.1979L91.4095 107.962L195.224 169.737L245.577 99.1433Z" fill="#D4983F" />
  <path d="M298 107.967L195.743 58.1361L143.836 46.1974L245.574 99.1428L298 107.967Z" fill="#FCD498" />
  <defs>
    <radialGradient id="paint0_angular" cx="0" cy="0" r="1" gradientUnits="userSpaceOnUse"
      gradientTransform="translate(248.95 171.813) rotate(90) scale(25.4345 33.2206)">
      <stop stop-color="#0D64E6" />
      <stop offset="0.703125" stop-color="white" stop-opacity="0.979167" />
      <stop offset="1" stop-color="white" stop-opacity="0" />
    </radialGradient>
    <radialGradient id="paint1_angular" cx="0" cy="0" r="1" gradientUnits="userSpaceOnUse"
      gradientTransform="translate(248.95 198.805) rotate(90) scale(25.4345 33.2206)">
      <stop stop-color="#0D64E6" />
      <stop offset="0.703125" stop-color="white" stop-opacity="0.979167" />
      <stop offset="1" stop-color="white" stop-opacity="0" />
    </radialGradient>
    <radialGradient id="paint2_angular" cx="0" cy="0" r="1" gradientUnits="userSpaceOnUse"
      gradientTransform="translate(249.989 225.797) rotate(90) scale(25.4345 33.2206)">
      <stop stop-color="#0D64E6" />
      <stop offset="0.703125" stop-color="white" stop-opacity="0.979167" />
      <stop offset="1" stop-color="white" stop-opacity="0" />
    </radialGradient>
    <radialGradient id="paint3_angular" cx="0" cy="0" r="1" gradientUnits="userSpaceOnUse"
      gradientTransform="translate(142.797 165.325) rotate(90) scale(32.442 45.1593)">
      <stop stop-color="#B8C5D0" />
      <stop offset="1" stop-color="#B8C5D0" stop-opacity="0" />
    </radialGradient>
    <radialGradient id="paint4_angular" cx="0" cy="0" r="1" gradientUnits="userSpaceOnUse"
      gradientTransform="translate(142.797 193.355) rotate(90) scale(32.442 45.1593)">
      <stop stop-color="#B8C5D0" />
      <stop offset="1" stop-color="#B8C5D0" stop-opacity="0" />
    </radialGradient>
    <radialGradient id="paint5_angular" cx="0" cy="0" r="1" gradientUnits="userSpaceOnUse"
      gradientTransform="translate(142.797 221.385) rotate(90) scale(32.442 45.1593)">
      <stop stop-color="#B8C5D0" />
      <stop offset="1" stop-color="#B8C5D0" stop-opacity="0" />
    </radialGradient>
  </defs>
</svg>
