<svg width="691" height="741" viewBox="0 0 691 741" fill="none" xmlns="http://www.w3.org/2000/svg">
  <g opacity="0.5">
    <ellipse cx="378.535" cy="377.501" rx="299.395" ry="336.573" fill="#292929" />
    <g opacity="0.65">
      <path
        d="M376.511 703.416C308.879 703.416 243.34 676.921 191.06 628.444C138.78 579.968 102.994 512.51 89.7999 437.564C76.6056 362.618 86.8191 284.822 118.7 217.431C150.581 150.039 202.158 97.223 264.641 67.9806C327.124 38.7381 396.649 34.879 461.368 57.0607C526.087 79.2425 581.997 126.093 619.571 189.629C657.145 253.165 674.059 329.455 667.43 405.501C660.801 481.547 631.039 552.644 583.217 606.677C556.135 637.443 523.921 661.834 488.44 678.44C452.959 695.045 414.915 703.534 376.511 703.416ZM376.511 45.4746C216.607 45.4746 86.5164 192.459 86.5164 373.127C86.5164 553.796 216.607 700.781 376.511 700.781C536.414 700.781 666.505 553.796 666.505 373.127C666.505 192.459 536.414 45.4746 376.511 45.4746Z"
        fill="#F5BB65" />
      <path
        d="M86.2741 387.957L88.8625 386.44L86.4401 382.306L83.7792 386.291L86.2741 387.957ZM119.856 445.272L117.268 446.788L119.771 451.061L122.399 446.863L119.856 445.272ZM187.969 340.459C187.597 338.844 185.987 337.836 184.373 338.207L158.06 344.26C156.445 344.632 155.437 346.242 155.809 347.856C156.18 349.471 157.79 350.479 159.405 350.108L182.794 344.727L188.174 368.116C188.546 369.731 190.156 370.739 191.771 370.368C193.385 369.996 194.393 368.386 194.022 366.771L187.969 340.459ZM46.4949 452.931L88.769 389.623L83.7792 386.291L41.5051 449.599L46.4949 452.931ZM83.6856 389.473L117.268 446.788L122.445 443.755L88.8625 386.44L83.6856 389.473ZM122.399 446.863L187.588 342.723L182.502 339.539L117.313 443.68L122.399 446.863Z"
        fill="url(#paint0_radial)" />
      <path
        d="M623.812 150.613H634.413C634.413 135.055 619.81 127.959 607.91 126.325V114.968H597.309V126.325C585.41 127.959 570.807 135.055 570.807 150.613C570.807 165.452 584.938 173.168 597.309 174.906V202.161C589.634 200.785 581.408 196.546 581.408 189H570.807C570.807 203.198 583.661 211.588 597.309 213.326V224.645H607.91V213.293C619.81 211.659 634.413 204.558 634.413 189C634.413 173.442 619.81 166.346 607.91 164.712V137.452C614.96 138.762 623.812 142.612 623.812 150.613ZM581.408 150.613C581.408 142.612 590.26 138.762 597.309 137.452V163.769C590.042 162.381 581.408 158.274 581.408 150.613ZM623.812 189C623.812 197.001 614.96 200.851 607.91 202.161V175.839C614.96 177.149 623.812 180.999 623.812 189Z"
        fill="#4D4D4D" />
      <path
        d="M631.04 150.056H641.641C641.641 134.499 627.038 127.403 615.138 125.768V114.411H604.537V125.768C592.638 127.403 578.035 134.499 578.035 150.056C578.035 164.896 592.166 172.611 604.537 174.35V201.605C596.862 200.228 588.636 195.989 588.636 188.443H578.035C578.035 202.641 590.889 211.031 604.537 212.77V224.088H615.138V212.737C627.038 211.103 641.641 204.001 641.641 188.443C641.641 172.886 627.038 165.79 615.138 164.155V136.895C622.188 138.206 631.04 142.055 631.04 150.056ZM588.636 150.056C588.636 142.055 597.488 138.206 604.537 136.895V163.212C597.271 161.825 588.636 157.717 588.636 150.056ZM631.04 188.443C631.04 196.444 622.188 200.294 615.138 201.605V175.282C622.188 176.593 631.04 180.442 631.04 188.443Z"
        fill="url(#paint1_angular)" />
      <rect x="604.538" y="114.968" width="10.6008" height="109.677" fill="url(#paint2_angular)" />
    </g>
    <rect width="206.467" height="320.353" transform="matrix(-1 0 0 1 674.296 392.332)" fill="#2F80ED" />
    <path d="M621.133 305.135L677.653 392.332L472.026 389.473L510.783 305.135H621.133Z" fill="#F5BB65"
      stroke="#F5BB65" stroke-width="5" />
    <path d="M674.296 394.96L618.244 312.717L564.348 394.96V712.685H674.296V394.96Z" fill="#659FF5" />
    <rect width="26.8575" height="19.9036" transform="matrix(-1 0 0 1 649.957 471.946)" fill="white" />
    <rect width="26.8575" height="19.9036" transform="matrix(-1 0 0 1 649.957 429.295)" fill="white" />
    <rect width="26.8575" height="19.9036" transform="matrix(-1 0 0 1 649.957 513.649)" fill="white" />
    <rect width="26.8575" height="19.9036" transform="matrix(-1 0 0 1 649.957 557.247)" fill="white" />
    <rect width="26.8575" height="19.9036" transform="matrix(-1 0 0 1 649.957 598.95)" fill="white" />
    <rect width="26.8575" height="19.9036" transform="matrix(-1 0 0 1 649.957 641.601)" fill="white" />
    <rect width="26.8575" height="19.9036" transform="matrix(-1 0 0 1 616.385 471.946)" fill="white" />
    <rect width="26.8575" height="19.9036" transform="matrix(-1 0 0 1 616.385 429.295)" fill="white" />
    <rect width="26.8575" height="19.9036" transform="matrix(-1 0 0 1 616.385 513.649)" fill="white" />
    <rect width="26.8575" height="19.9036" transform="matrix(-1 0 0 1 616.385 557.247)" fill="white" />
    <rect width="26.8575" height="19.9036" transform="matrix(-1 0 0 1 616.385 598.95)" fill="white" />
    <rect width="26.8575" height="19.9036" transform="matrix(-1 0 0 1 616.385 641.601)" fill="white" />
    <rect width="207.306" height="189.558" transform="matrix(-1 0 0 1 286.541 523.127)" fill="#2F80ED" />
    <path d="M233.377 471.946L289.898 523.127L84.2704 521.449L123.027 471.946H233.377Z" fill="#F5BB65"
      stroke="#F5BB65" stroke-width="5" />
    <path d="M286.541 524.459L230.489 475.737L176.593 524.459V712.685H286.541V524.459Z" fill="#659FF5" />
    <rect x="261.362" y="602.741" width="26.8575" height="31.2771" transform="rotate(-180 261.362 602.741)"
      fill="white" />
    <rect x="261.362" y="666.243" width="26.8575" height="32.2249" transform="rotate(-180 261.362 666.243)"
      fill="white" />
    <rect x="228.629" y="602.741" width="26.8575" height="31.2771" transform="rotate(-180 228.629 602.741)"
      fill="white" />
    <rect x="228.629" y="666.243" width="26.8575" height="32.2249" transform="rotate(-180 228.629 666.243)"
      fill="white" />
    <rect width="206.467" height="443.566" transform="matrix(-1 0 0 1 492.169 269.119)" fill="#2F80ED" />
    <path d="M439 149.697L495.526 269.119H282.344L328.641 149.697H439Z" fill="#21AB85" stroke="#21AB85"
      stroke-width="5" />
    <path d="M492.169 272.99L436.117 159.175L382.221 272.99V712.685H492.169V272.99Z" fill="#51DBF9" />
    <path d="M439 149.697L495.526 269.119H282.344L328.641 149.697H439Z" fill="#F5BB65" stroke="#F5BB65"
      stroke-width="5" />
    <path d="M492.169 272.99L436.117 159.175L382.221 272.99V712.685H492.169V272.99Z" fill="#659FF5" />
    <rect width="26.8575" height="27.4859" transform="matrix(-1 0 0 1 467.829 379.062)" fill="white" />
    <rect width="26.8575" height="29.3815" transform="matrix(-1 0 0 1 467.829 319.352)" fill="white" />
    <rect width="26.8575" height="27.4859" transform="matrix(-1 0 0 1 467.829 437.825)" fill="white" />
    <rect width="26.8575" height="26.5381" transform="matrix(-1 0 0 1 467.829 497.536)" fill="white" />
    <rect width="26.8575" height="29.3815" transform="matrix(-1 0 0 1 467.829 554.404)" fill="white" />
    <rect width="26.8575" height="27.4859" transform="matrix(-1 0 0 1 467.829 614.114)" fill="white" />
    <rect width="26.8575" height="27.4859" transform="matrix(-1 0 0 1 434.257 379.062)" fill="white" />
    <rect width="26.8575" height="29.3815" transform="matrix(-1 0 0 1 434.257 319.352)" fill="white" />
    <rect width="26.8575" height="27.4859" transform="matrix(-1 0 0 1 434.257 437.825)" fill="white" />
    <rect width="26.8575" height="26.5381" transform="matrix(-1 0 0 1 434.257 497.536)" fill="white" />
    <rect width="26.8575" height="29.3815" transform="matrix(-1 0 0 1 434.257 554.404)" fill="white" />
    <rect width="26.8575" height="27.4859" transform="matrix(-1 0 0 1 434.257 614.114)" fill="white" />
  </g>
  <defs>
    <radialGradient id="paint0_radial" cx="0" cy="0" r="1" gradientUnits="userSpaceOnUse"
      gradientTransform="translate(119.856 369.601) rotate(93.7368) scale(81.8381 104.762)">
      <stop stop-color="#659FF5" />
      <stop offset="1" stop-color="#659FF5" stop-opacity="0.5" />
    </radialGradient>
    <radialGradient id="paint1_angular" cx="0" cy="0" r="1" gradientUnits="userSpaceOnUse"
      gradientTransform="translate(609.838 169.25) rotate(90) scale(54.8385 31.8027)">
      <stop stop-color="#659FF5" />
      <stop offset="1" stop-color="#659FF5" stop-opacity="0" />
    </radialGradient>
    <radialGradient id="paint2_angular" cx="0" cy="0" r="1" gradientUnits="userSpaceOnUse"
      gradientTransform="translate(609.838 169.807) rotate(90) scale(54.8385 5.30042)">
      <stop stop-color="#F5BB65" />
      <stop offset="1" stop-color="#659FF5" stop-opacity="0" />
    </radialGradient>
  </defs>
</svg>
