<svg width="200" height="38" viewBox="0 0 200 38" fill="none" xmlns="http://www.w3.org/2000/svg">
  <g clip-path="url(#clip0)">
    <g clip-path="url(#clip1)">
      <path
        d="M6.48 20.1507C7.236 20.1507 7.908 20.3127 8.496 20.6367C9.096 20.9607 9.564 21.4407 9.9 22.0767C10.248 22.7127 10.422 23.4807 10.422 24.3807V30.2307H8.388V24.6867C8.388 23.7987 8.166 23.1207 7.722 22.6527C7.278 22.1727 6.672 21.9327 5.904 21.9327C5.136 21.9327 4.524 22.1727 4.068 22.6527C3.624 23.1207 3.402 23.7987 3.402 24.6867V30.2307H1.35V16.9107H3.402V21.4647C3.75 21.0447 4.188 20.7207 4.716 20.4927C5.256 20.2647 5.844 20.1507 6.48 20.1507ZM17.3415 30.3927C16.4055 30.3927 15.5595 30.1827 14.8035 29.7627C14.0475 29.3307 13.4535 28.7307 13.0215 27.9627C12.5895 27.1827 12.3735 26.2827 12.3735 25.2627C12.3735 24.2547 12.5955 23.3607 13.0395 22.5807C13.4835 21.8007 14.0895 21.2007 14.8575 20.7807C15.6255 20.3607 16.4835 20.1507 17.4315 20.1507C18.3795 20.1507 19.2375 20.3607 20.0055 20.7807C20.7735 21.2007 21.3795 21.8007 21.8235 22.5807C22.2675 23.3607 22.4895 24.2547 22.4895 25.2627C22.4895 26.2707 22.2615 27.1647 21.8055 27.9447C21.3495 28.7247 20.7255 29.3307 19.9335 29.7627C19.1535 30.1827 18.2895 30.3927 17.3415 30.3927ZM17.3415 28.6107C17.8695 28.6107 18.3615 28.4847 18.8175 28.2327C19.2855 27.9807 19.6635 27.6027 19.9515 27.0987C20.2395 26.5947 20.3835 25.9827 20.3835 25.2627C20.3835 24.5427 20.2455 23.9367 19.9695 23.4447C19.6935 22.9407 19.3275 22.5627 18.8715 22.3107C18.4155 22.0587 17.9235 21.9327 17.3955 21.9327C16.8675 21.9327 16.3755 22.0587 15.9195 22.3107C15.4755 22.5627 15.1215 22.9407 14.8575 23.4447C14.5935 23.9367 14.4615 24.5427 14.4615 25.2627C14.4615 26.3307 14.7315 27.1587 15.2715 27.7467C15.8235 28.3227 16.5135 28.6107 17.3415 28.6107ZM33.5 20.3127V30.2307H31.448V29.0607C31.124 29.4687 30.698 29.7927 30.17 30.0327C29.654 30.2607 29.102 30.3747 28.514 30.3747C27.734 30.3747 27.032 30.2127 26.408 29.8887C25.796 29.5647 25.31 29.0847 24.95 28.4487C24.602 27.8127 24.428 27.0447 24.428 26.1447V20.3127H26.462V25.8387C26.462 26.7267 26.684 27.4107 27.128 27.8907C27.572 28.3587 28.178 28.5927 28.946 28.5927C29.714 28.5927 30.32 28.3587 30.764 27.8907C31.22 27.4107 31.448 26.7267 31.448 25.8387V20.3127H33.5ZM39.8074 30.3927C39.0274 30.3927 38.3254 30.2547 37.7014 29.9787C37.0894 29.6907 36.6034 29.3067 36.2434 28.8267C35.8834 28.3347 35.6914 27.7887 35.6674 27.1887H37.7914C37.8274 27.6087 38.0254 27.9627 38.3854 28.2507C38.7574 28.5267 39.2194 28.6647 39.7714 28.6647C40.3474 28.6647 40.7914 28.5567 41.1034 28.3407C41.4274 28.1127 41.5894 27.8247 41.5894 27.4767C41.5894 27.1047 41.4094 26.8287 41.0494 26.6487C40.7014 26.4687 40.1434 26.2707 39.3754 26.0547C38.6314 25.8507 38.0254 25.6527 37.5574 25.4607C37.0894 25.2687 36.6814 24.9747 36.3334 24.5787C35.9974 24.1827 35.8294 23.6607 35.8294 23.0127C35.8294 22.4847 35.9854 22.0047 36.2974 21.5727C36.6094 21.1287 37.0534 20.7807 37.6294 20.5287C38.2174 20.2767 38.8894 20.1507 39.6454 20.1507C40.7734 20.1507 41.6794 20.4387 42.3634 21.0147C43.0594 21.5787 43.4314 22.3527 43.4794 23.3367H41.4274C41.3914 22.8927 41.2114 22.5387 40.8874 22.2747C40.5634 22.0107 40.1254 21.8787 39.5734 21.8787C39.0334 21.8787 38.6194 21.9807 38.3314 22.1847C38.0434 22.3887 37.8994 22.6587 37.8994 22.9947C37.8994 23.2587 37.9954 23.4807 38.1874 23.6607C38.3794 23.8407 38.6134 23.9847 38.8894 24.0927C39.1654 24.1887 39.5734 24.3147 40.1134 24.4707C40.8334 24.6627 41.4214 24.8607 41.8774 25.0647C42.3454 25.2567 42.7474 25.5447 43.0834 25.9287C43.4194 26.3127 43.5934 26.8227 43.6054 27.4587C43.6054 28.0227 43.4494 28.5267 43.1374 28.9707C42.8254 29.4147 42.3814 29.7627 41.8054 30.0147C41.2414 30.2667 40.5754 30.3927 39.8074 30.3927ZM46.8667 18.9987C46.4947 18.9987 46.1827 18.8727 45.9307 18.6207C45.6787 18.3687 45.5527 18.0567 45.5527 17.6847C45.5527 17.3127 45.6787 17.0007 45.9307 16.7487C46.1827 16.4967 46.4947 16.3707 46.8667 16.3707C47.2267 16.3707 47.5327 16.4967 47.7847 16.7487C48.0367 17.0007 48.1627 17.3127 48.1627 17.6847C48.1627 18.0567 48.0367 18.3687 47.7847 18.6207C47.5327 18.8727 47.2267 18.9987 46.8667 18.9987ZM47.8747 20.3127V30.2307H45.8227V20.3127H47.8747ZM55.5728 20.1507C56.3528 20.1507 57.0488 20.3127 57.6608 20.6367C58.2848 20.9607 58.7708 21.4407 59.1188 22.0767C59.4668 22.7127 59.6408 23.4807 59.6408 24.3807V30.2307H57.6068V24.6867C57.6068 23.7987 57.3848 23.1207 56.9408 22.6527C56.4968 22.1727 55.8908 21.9327 55.1228 21.9327C54.3548 21.9327 53.7428 22.1727 53.2868 22.6527C52.8428 23.1207 52.6208 23.7987 52.6208 24.6867V30.2307H50.5688V20.3127H52.6208V21.4467C52.9568 21.0387 53.3828 20.7207 53.8988 20.4927C54.4268 20.2647 54.9848 20.1507 55.5728 20.1507ZM66.2542 20.1507C67.0222 20.1507 67.7002 20.3067 68.2882 20.6187C68.8882 20.9187 69.3562 21.2967 69.6922 21.7527V20.3127H71.7622V30.3927C71.7622 31.3047 71.5702 32.1147 71.1862 32.8227C70.8022 33.5427 70.2442 34.1067 69.5122 34.5147C68.7922 34.9227 67.9282 35.1267 66.9202 35.1267C65.5762 35.1267 64.4602 34.8087 63.5722 34.1727C62.6842 33.5487 62.1802 32.6967 62.0602 31.6167H64.0942C64.2502 32.1327 64.5802 32.5467 65.0842 32.8587C65.6002 33.1827 66.2122 33.3447 66.9202 33.3447C67.7482 33.3447 68.4142 33.0927 68.9182 32.5887C69.4342 32.0847 69.6922 31.3527 69.6922 30.3927V28.7367C69.3442 29.2047 68.8702 29.6007 68.2702 29.9247C67.6822 30.2367 67.0102 30.3927 66.2542 30.3927C65.3902 30.3927 64.5982 30.1767 63.8782 29.7447C63.1702 29.3007 62.6062 28.6887 62.1862 27.9087C61.7782 27.1167 61.5742 26.2227 61.5742 25.2267C61.5742 24.2307 61.7782 23.3487 62.1862 22.5807C62.6062 21.8127 63.1702 21.2187 63.8782 20.7987C64.5982 20.3667 65.3902 20.1507 66.2542 20.1507ZM69.6922 25.2627C69.6922 24.5787 69.5482 23.9847 69.2602 23.4807C68.9842 22.9767 68.6182 22.5927 68.1622 22.3287C67.7062 22.0647 67.2142 21.9327 66.6862 21.9327C66.1582 21.9327 65.6662 22.0647 65.2102 22.3287C64.7542 22.5807 64.3822 22.9587 64.0942 23.4627C63.8182 23.9547 63.6802 24.5427 63.6802 25.2267C63.6802 25.9107 63.8182 26.5107 64.0942 27.0267C64.3822 27.5427 64.7542 27.9387 65.2102 28.2147C65.6782 28.4787 66.1702 28.6107 66.6862 28.6107C67.2142 28.6107 67.7062 28.4787 68.1622 28.2147C68.6182 27.9507 68.9842 27.5667 69.2602 27.0627C69.5482 26.5467 69.6922 25.9467 69.6922 25.2627ZM90.7474 17.7207L87.0394 30.2307H84.7174L82.0894 20.7627L79.2994 30.2307L76.9954 30.2487L73.4494 17.7207H75.6274L78.2194 27.9087L81.0274 17.7207H83.3314L85.9414 27.8547L88.5514 17.7207H90.7474ZM98.9378 30.2307L96.0578 25.2267H94.4918V30.2307H92.4398V17.7207H96.7598C97.7198 17.7207 98.5298 17.8887 99.1898 18.2247C99.8618 18.5607 100.36 19.0107 100.684 19.5747C101.02 20.1387 101.188 20.7687 101.188 21.4647C101.188 22.2807 100.948 23.0247 100.468 23.6967C99.9998 24.3567 99.2738 24.8067 98.2898 25.0467L101.386 30.2307H98.9378ZM94.4918 23.5887H96.7598C97.5278 23.5887 98.1038 23.3967 98.4878 23.0127C98.8838 22.6287 99.0818 22.1127 99.0818 21.4647C99.0818 20.8167 98.8898 20.3127 98.5058 19.9527C98.1218 19.5807 97.5398 19.3947 96.7598 19.3947H94.4918V23.5887Z"
        fill="white" />
      <path
        d="M111.027 17.6318V27C111.027 29.2091 112.818 31 115.027 31H130.64C132.849 31 134.64 29.2091 134.64 27V13.7812"
        stroke="#659FF5" stroke-width="2" />
      <path d="M145.046 2.39787L146.495 3.39253L147.987 4.57566V2L145.046 2.39787Z" fill="#F5BB65" />
      <path
        d="M110 18.3125C113.637 13.8837 118.849 7.45299 121.296 4.43059C122.033 3.52016 123.388 3.43748 124.234 4.24812L133.388 13.0255C134.154 13.7597 135.36 13.7683 136.136 13.0451L146.495 3.39253M146.495 3.39253L145.046 2.39787L147.987 2V4.57566L146.495 3.39253Z"
        stroke="#F5BB65" stroke-width="3" />
    </g>
  </g>
  <defs>
    <clipPath id="clip0">
      <rect width="1151" height="38" fill="white" />
    </clipPath>
    <clipPath id="clip1">
      <rect width="149" height="38" fill="white" />
    </clipPath>
  </defs>
</svg>
